inDegrees=yes
name=ik_lifting_orientations
DataType=double
version=3
OpenSimVersion=4.5-2024-01-10-34fd6af
endheader
time	pelvis_tilt	pelvis_list	pelvis_rotation	pelvis_tx	pelvis_ty	pelvis_tz	hip_flexion_r	hip_adduction_r	hip_rotation_r	knee_angle_r	knee_angle_r_beta	ankle_angle_r	subtalar_angle_r	mtp_angle_r	hip_flexion_l	hip_adduction_l	hip_rotation_l	knee_angle_l	knee_angle_l_beta	ankle_angle_l	subtalar_angle_l	mtp_angle_l	lumbar_extension	lumbar_bending	lumbar_rotation	arm_flex_r	arm_add_r	arm_rot_r	elbow_flex_r	pro_sup_r	wrist_flex_r	wrist_dev_r	arm_flex_l	arm_add_l	arm_rot_l	elbow_flex_l	pro_sup_l	wrist_flex_l	wrist_dev_l
2	-0.02518272891620342	-3.907363483248386	-67.83694285462576	0	0.9399999998679526	0	44.96524764245823	-10.03199000087563	0	59.97617632977249	1.046781749711218	-5.004783794033909	0	0	44.96524764245823	-10.03199000087563	0	59.97617632977249	1.046781749711218	-5.004783794033909	0	0	-5.784862377422004	3.393266467465128	-30.32367637706072	87.84561420962284	12.12498986585067	18.50985211925994	70.01102719979914	1.278391875870737	0	0	0	-12.07584190006658	0	88.74640984191902	1.278391875870737	0	0
2.01	-0.0434093176099174	-3.782987786511383	-67.58384486457241	0	0.9399999998679526	0	44.96526096388308	-10.0319481673962	0	59.97618367882936	1.046781877976458	-5.004775670792355	0	0	44.96526096388308	-10.0319481673962	0	59.97618367882936	1.046781877976458	-5.004775670792355	0	0	-6.10430889097689	3.712815776186594	-30.30180043976328	89.57532930910325	12.27256710727806	18.23319791182027	67.37236786158176	1.278048322250133	0	0	0	-12.07642406473769	0	88.74674668121058	1.278048322250133	0	0
2.02	-0.06995274410973926	-3.703464455663235	-67.3439589791865	0	0.9399999998679526	0	44.96527298618485	-10.03191027026444	0	59.97619028568392	1.046781993287823	-5.004768308581857	0	0	44.96527298618485	-10.03191027026444	0	59.97619028568392	1.046781993287823	-5.004768308581857	0	0	-6.466034790009151	4.050305731060244	-30.20613764142605	91.136620689785	12.3487822148705	18.03816645236485	64.87544092716658	1.277738706417576	0	0	0	-12.07694807814364	0	88.74705024597266	1.277738706417576	0	0
2.03	-0.0677977010981124	-3.613563818470755	-67.13025980956435	0	0.9399999998679526	0	44.96528937313417	-10.03185830717393	0	59.97619924329143	1.046782149627567	-5.004758204303554	0	0	44.96528937313417	-10.03185830717393	0	59.97619924329143	1.046782149627567	-5.004758204303554	0	0	-6.746461445069126	4.280858070654184	-30.07498628008356	92.60042391200311	12.37680087117831	17.90161249151511	62.27055545051056	1.277317520287694	0	0	0	-12.07765971165721	0	88.74746320049881	1.277317520287694	0	0
2.04	-0.1210945350229845	-3.379864268168053	-66.97363027278288	0	0.9399999998679526	0	44.96530170803742	-10.03181881496169	0	59.9762059290217	1.046782266315573	-5.004750512700491	0	0	44.96530170803742	-10.03181881496169	0	59.9762059290217	1.046782266315573	-5.004750512700491	0	0	-6.74915081195354	4.432422549293717	-30.09920200861194	93.46136590840484	12.20184250492839	18.00724855016797	60.13818852975311	1.277001489177535	0	0	0	-12.07819221744694	0	88.74777305510943	1.277001489177535	0	0
2.05	-0.140033477297093	-3.179446998770422	-66.76747416022616	0	0.9399999998679526	0	44.9653183624735	-10.03176579315781	0	59.97621498893595	1.046782424440907	-5.004740200202698	0	0	44.9653183624735	-10.03176579315781	0	59.97621498893595	1.046782424440907	-5.004740200202698	0	0	-6.707384406542227	4.497162875557946	-30.23345118043577	94.47410219361835	12.56016850703109	18.12345337061149	57.70665009231232	1.276574143596143	0	0	0	-12.07891318008605	0	88.74819204868631	1.276574143596143	0	0
2.06	-0.2087844022453267	-2.901259621484029	-66.55492551025236	0	0.9399999998679526	0	44.96532845105028	-10.03173376782982	0	59.97622048582654	1.046782520379746	-5.004733976368718	0	0	44.96532845105028	-10.03173376782982	0	59.97622048582654	1.046782520379746	-5.004733976368718	0	0	-6.412487588446618	4.485130655797324	-30.44980327338258	95.10001894628984	12.93773381873149	18.43064939136253	55.86814097477983	1.276315092860922	0	0	0	-12.07935046422126	0	88.7484460365628	1.276315092860922	0	0
2.07	-0.24748505729302	-2.599613849004517	-66.60582811555369	0	0.9399999998679526	0	44.96533773523548	-10.03170418466638	0	59.97622552762653	1.046782608375756	-5.004728223579304	0	0	44.96533773523548	-10.03170418466638	0	59.97622552762653	1.046782608375756	-5.004728223579304	0	0	-6.154058439265758	4.409687239820713	-30.40041392775029	95.62817279463485	13.53644928512383	18.73096833436416	54.72198724240574	1.276076991543569	0	0	0	-12.07975196038698	0	88.74867948444559	1.276076991543569	0	0
2.08	-0.2760725089927984	-2.412165054277509	-66.67985335899601	0	0.9399999998679526	0	44.96534622420382	-10.0316771817322	0	59.976230141611	1.046782688904977	-5.004722975132869	0	0	44.96534622420382	-10.0316771817322	0	59.976230141611	1.046782688904977	-5.004722975132869	0	0	-5.922687781429251	4.315735285261842	-30.39413979463403	95.9817026891439	14.08403822452749	19.00520828221407	53.70571390809437	1.275859197682199	0	0	0	-12.08011932930285	0	88.74889302176267	1.275859197682199	0	0
2.09	-0.3141010239196262	-2.164760646239769	-66.7918774795458	0	0.9399999998679526	0	44.96535738121177	-10.03164164671798	0	59.97623619632729	1.046782794579711	-5.004716067843436	0	0	44.96535738121177	-10.03164164671798	0	59.97623619632729	1.046782794579711	-5.004716067843436	0	0	-5.597913101697352	4.173927193970361	-30.30597891174543	96.49401671091027	14.76351472771732	19.44238163567758	52.02678197975774	1.275573105650887	0	0	0	-12.08060167076868	0	88.7491735224317	1.275573105650887	0	0
2.1	-0.320353668671054	-2.047414342763465	-66.90819813368014	0	0.9399999998679526	0	44.96537063013226	-10.03159935656444	0	59.97624336982516	1.046782919780868	-5.004707845484128	0	0	44.96537063013226	-10.03159935656444	0	59.97624336982516	1.046782919780868	-5.004707845484128	0	0	-5.394726637877142	4.053978646175984	-30.26995452255327	96.99081910756307	15.68855496968572	19.82109584512533	50.59946741749413	1.275233647856202	0	0	0	-12.08117357877642	0	88.74950634587937	1.275233647856202	0	0
2.11	-0.3496289070174299	-1.868525684830611	-66.98524839634015	0	0.9399999998679526	0	44.96537979785506	-10.03157015832752	0	59.97624833951023	1.046783006518235	-5.004702172070927	0	0	44.96537979785506	-10.03157015832752	0	59.97624833951023	1.046783006518235	-5.004702172070927	0	0	-5.073605470568833	3.894302497828073	-30.32559369639426	97.19493606484342	16.17195050978848	20.18211857354124	49.70251452818326	1.274998631877211	0	0	0	-12.08156969518006	0	88.74973676872133	1.274998631877211	0	0
2.12	-0.3758166656790657	-1.650274297607906	-67.11653353959052	0	0.9399999998679526	0	44.96538852892909	-10.03154244936548	0	59.97625308349858	1.046783089316452	-5.004696792632446	0	0	44.96538852892909	-10.03154244936548	0	59.97625308349858	1.046783089316452	-5.004696792632446	0	0	-4.656938304328357	3.685728712809127	-30.32749844027058	97.37907067336225	16.94783243523137	20.45866120700078	48.56085761755637	1.274774595075971	0	0	0	-12.08194760450928	0	88.74995642696875	1.274774595075971	0	0
2.13	-0.4132945053783303	-1.419297268500826	-67.23331276048229	0	0.9399999998679526	0	44.96539845999641	-10.03151101139122	0	59.97625848729222	1.046783183630443	-5.004690693328301	0	0	44.96539845999641	-10.03151101139122	0	59.97625848729222	1.046783183630443	-5.004690693328301	0	0	-4.184737289806515	3.445347688552608	-30.35787005022518	97.55738073782818	17.72208235866786	20.69286796578336	47.16014452470795	1.274519607879597	0	0	0	-12.08237793775261	0	88.75020643072487	1.274519607879597	0	0
